#!OML:ASF X:\für Bonn\!DataBase\2005_08_10_Bjorn_Final\c3d\bjorn.ASF
:FULLY-SPECIFIED
:DEGREES
97
root 0.346831 8.18101 3.42549 -184.104 -0.853305 -180.272
lowerback 28.1957 1.46119 7.48531
upperback 14.1572 -0.404003 1.43097
thorax 0.578799 -1.53952 -2.60412
lowerneck -24.4905 -1.31547 0.546116
upperneck 1.71328 -2.46585 -2.96927
head 4.25016 -1.76005 -1.30998
rclavicle 8.74653e-015 1.98785e-014
rhumerus 75.1894 3.26709 -66.8502
rradius 13.5355
rwrist 38.9312
rhand -18.228 10.7786
rfingers 7.12502
rthumb 8.05026 -19.0481
lclavicle 8.74653e-015 1.98785e-014
lhumerus 76.3146 -12.3641 78.6335
lradius 7.80352
lwrist -53.3334
lhand -25.3233 -7.03443
lfingers 7.12502
lthumb 1.19934 22.9419
rfemur 63.3228 -79.5048 -153.218
rtibia 152.675
rfoot -68.7691 58.3984
rtoes -32.2686
lfemur -133.901 91.8805 -58.9705
ltibia 155.348
lfoot -53.503 -36.0784
ltoes -32.3624
98
root 0.336421 8.2826 3.43156 -183.774 -0.813472 -180.335
lowerback 27.995 1.46689 7.44487
upperback 14.1485 -0.400343 1.43751
thorax 0.65709 -1.52771 -2.5779
lowerneck -24.4935 -1.3016 0.406882
upperneck 1.68617 -2.4207 -2.8322
head 4.24543 -1.73042 -1.23964
rclavicle 1.27222e-014 7.95139e-015
rhumerus 75.0657 3.35587 -66.8558
rradius 13.5754
rwrist 39.077
rhand -17.9531 10.8134
rfingers 7.12502
rthumb 8.31563 -19.0029
lclavicle 1.27222e-014 7.95139e-015
lhumerus 76.4654 -12.2922 78.633
lradius 7.38809
lwrist -54.0705
lhand -25.7791 -6.78722
lfingers 7.12502
lthumb 0.759094 23.1912
rfemur 60.1996 -81.7862 -148.909
rtibia 151.989
rfoot -66.1157 58.1211
rtoes -32.0817
lfemur -63.6106 87.6153 10.2167
ltibia 154.647
lfoot -51.886 -35.6371
ltoes -32.3675
99
root 0.326926 8.39675 3.43799 -183.384 -0.782595 -180.398
lowerback 27.7342 1.47727 7.37954
upperback 14.1175 -0.384461 1.4432
thorax 0.736388 -1.50532 -2.54191
lowerneck -24.3636 -1.2684 0.355
upperneck 1.54223 -2.37615 -2.76455
head 4.18355 -1.70527 -1.20216
rclavicle 1.82882e-014 5.56597e-015
rhumerus 74.9505 3.55123 -66.2077
rradius 13.6655
rwrist 38.1748
rhand -17.5784 10.7988
rfingers 7.12502
rthumb 8.67721 -19.0029
lclavicle 1.82882e-014 5.56597e-015
lhumerus 76.6191 -12.2174 78.6233
lradius 6.97583
lwrist -54.6451
lhand -26.1829 -6.66962
lfingers 7.12502
lthumb 0.369047 23.3098
rfemur 52.778 -84.3199 -140.174
rtibia 151.218
rfoot -63.2628 57.6151
rtoes -31.9686
lfemur -82.4489 83.4601 -9.72906
ltibia 153.866
lfoot -49.8461 -35.1043
ltoes -32.2757
100
root 0.317145 8.52236 3.44459 -182.948 -0.740724 -180.424
lowerback 27.4585 1.47567 7.36412
upperback 14.0615 -0.360995 1.43806
thorax 0.797078 -1.47245 -2.54739
lowerneck -24.1742 -1.22677 0.328779
upperneck 1.31816 -2.33387 -2.69772
head 4.0877 -1.68215 -1.16774
rclavicle 2.38542e-015 3.73715e-014
rhumerus 74.861 3.78292 -65.3509
rradius 13.7298
rwrist 36.7994
rhand -17.2113 10.8426
rfingers 7.12502
rthumb 9.03144 -18.944
lclavicle 2.38542e-015 3.73715e-014
lhumerus 76.7776 -12.156 78.5919
lradius 6.57377
lwrist -54.8823
lhand -26.4866 -6.61753
lfingers 7.12502
lthumb 0.0757816 23.3622
rfemur 27.4845 -86.8174 -113.452
rtibia 150.367
rfoot -60.076 57.0005
rtoes -31.6318
lfemur -85.9618 78.624 -14.3013
ltibia 152.998
lfoot -47.6226 -34.4202
ltoes -32.2383
101
root 0.308869 8.6582 3.45021 -182.489 -0.678773 -180.489
lowerback 27.1525 1.50164 7.2779
upperback 14.0169 -0.322815 1.44021
thorax 0.883064 -1.43618 -2.50904
lowerneck -23.9508 -1.18042 0.340449
upperneck 1.03535 -2.29664 -2.71373
head 3.96753 -1.66884 -1.16533
rclavicle -2.3059e-014 -3.4191e-014
rhumerus 74.7823 4.02971 -64.5137
rradius 13.8287
rwrist 35.3005
rhand -16.8583 10.8331
rfingers 7.12502
rthumb 9.37203 -18.9385
lclavicle -2.3059e-014 -3.4191e-014
lhumerus 76.921 -12.0931 78.5808
lradius 6.23349
lwrist -54.8546
lhand -26.7577 -6.64314
lfingers 7.12502
lthumb -0.186054 23.3365
rfemur -40.0557 -86.9757 -44.4654
rtibia 149.446
rfoot -57.0148 55.9906
rtoes -31.6782
lfemur -86.7246 72.8038 -16.1636
ltibia 152.038
lfoot -45.0719 -33.4934
ltoes -32.1156
102
root 0.30054 8.80379 3.45723 -181.962 -0.636916 -180.554
lowerback 26.8252 1.50695 7.20926
upperback 13.9159 -0.280237 1.42593
thorax 0.914987 -1.38869 -2.49811
lowerneck -23.6348 -1.15314 0.328626
upperneck 0.727251 -2.27651 -2.70726
head 3.82678 -1.66016 -1.15223
rclavicle -1.19271e-014 -1.74931e-014
rhumerus 74.645 4.27401 -63.6332
rradius 13.9285
rwrist 33.7851
rhand -16.6394 10.8629
rfingers 7.12502
rthumb 9.58328 -18.8991
lclavicle -1.19271e-014 -1.74931e-014
lhumerus 76.977 -12.088 78.576
lradius 5.95848
lwrist -54.6099
lhand -26.889 -6.75168
lfingers 7.12502
lthumb -0.312904 23.2278
rfemur -72.0892 -83.9381 -10.9706
rtibia 148.449
rfoot -53.5323 54.9632
rtoes -31.3679
lfemur -86.9669 66.9517 -17.4336
ltibia 151.02
lfoot -42.6708 -32.2451
ltoes -32.16
103
root 0.291785 8.95714 3.46538 -181.436 -0.563713 -180.602
lowerback 26.4828 1.52708 7.12848
upperback 13.8355 -0.232231 1.43034
thorax 0.978647 -1.34235 -2.46173
lowerneck -23.367 -1.11064 0.338211
upperneck 0.397772 -2.24603 -2.75432
head 3.68584 -1.65287 -1.15917
rclavicle -3.18055e-015 -5.56597e-015
rhumerus 74.5468 4.46497 -63.1372
rradius 14.0051
rwrist 32.9295
rhand -16.5695 10.8854
rfingers 7.12502
rthumb 9.65068 -18.8735
lclavicle -3.18055e-015 -5.56597e-015
lhumerus 77.0044 -12.064 78.59
lradius 5.78375
lwrist -54.1386
lhand -26.9666 -6.89024
lfingers 7.12502
lthumb -0.387781 23.0891
rfemur -81.2513 -79.7708 -0.338415
rtibia 147.393
rfoot -49.8215 53.6927
rtoes -30.9221
lfemur -86.7441 61.1224 -18.1733
ltibia 149.933
lfoot -40.4522 -30.8488
ltoes -32.1622
104
root 0.282961 9.11837 3.47475 -180.879 -0.479703 -180.668
lowerback 26.1553 1.54068 7.04668
upperback 13.719 -0.176016 1.40736
thorax 0.995057 -1.28754 -2.45507
lowerneck -23.1457 -1.07375 0.339007
upperneck 0.141075 -2.21601 -2.76266
head 3.57485 -1.64149 -1.15386
rclavicle 4.77083e-015 1.19271e-014
rhumerus 74.4129 4.62057 -62.7069
rradius 14.0702
rwrist 32.4082
rhand -16.5787 10.9171
rfingers 7.12502
rthumb 9.64186 -18.8422
lclavicle 4.77083e-015 1.19271e-014
lhumerus 76.9544 -12.076 78.5914
lradius 5.69902
lwrist -53.6894
lhand -27.0015 -6.99175
lfingers 7.12502
lthumb -0.421523 22.9876
rfemur -84.5912 -75.2042 4.44604
rtibia 146.293
rfoot -46.7257 51.7437
rtoes -30.9634
lfemur -86.3695 55.2999 -18.7096
ltibia 148.796
lfoot -38.5053 -29.1616
ltoes -32.4255
105
root 0.27402 9.28807 3.48548 -180.304 -0.394679 -180.734
lowerback 25.8079 1.55529 6.96787
upperback 13.6027 -0.11795 1.38169
thorax 1.02243 -1.23068 -2.45331
lowerneck -22.9449 -1.04416 0.326433
upperneck -0.111348 -2.19378 -2.75903
head 3.46826 -1.63381 -1.14382
rclavicle 1.66979e-014 1.43125e-014
rhumerus 74.3115 4.67052 -62.7652
rradius 14.0707
rwrist 32.7329
rhand -16.691 10.9159
rfingers 7.12502
rthumb 9.53347 -18.8484
lclavicle 1.66979e-014 1.43125e-014
lhumerus 76.8791 -12.1015 78.5946
lradius 5.72339
lwrist -53.2955
lhand -26.9768 -7.05027
lfingers 7.12502
lthumb -0.397634 22.9291
rfemur -85.9798 -70.3545 7.27065
rtibia 145.127
rfoot -44.2921 49.2028
rtoes -31.5896
lfemur -85.911 49.1193 -19.0872
ltibia 147.583
lfoot -36.5221 -27.2334
ltoes -32.4732
106
root 0.264807 9.46368 3.49637 -179.729 -0.279852 -180.762
lowerback 25.4486 1.57185 6.90986
upperback 13.4881 -0.0555548 1.36231
thorax 1.05988 -1.1714 -2.45721
lowerneck -22.7802 -1.00174 0.350284
upperneck -0.299481 -2.15533 -2.8163
head 3.38649 -1.6206 -1.15832
rclavicle 3.97569e-015 -3.97569e-015
rhumerus 74.2249 4.66626 -63.0255
rradius 14.047
rwrist 33.5778
rhand -16.8819 11.0025
rfingers 7.12502
rthumb 9.34929 -18.7702
lclavicle 3.97569e-015 -3.97569e-015
lhumerus 76.8066 -12.0995 78.5887
lradius 5.77773
lwrist -53.0158
lhand -26.9103 -7.09607
lfingers 7.12502
lthumb -0.33348 22.8834
rfemur -86.3637 -65.3706 9.08583
rtibia 143.908
rfoot -42.419 46.3067
rtoes -32.5695
lfemur -85.3799 43.466 -19.2882
ltibia 146.315
lfoot -34.9811 -25.1816
ltoes -32.8719
107
root 0.256223 9.64657 3.50839 -179.164 -0.183389 -180.828
lowerback 25.1184 1.58621 6.82556
upperback 13.3553 0.0068223 1.3359
thorax 1.06247 -1.11286 -2.45269
lowerneck -22.5599 -0.975587 0.334892
upperneck -0.487677 -2.12675 -2.81435
head 3.2976 -1.60621 -1.14813
rclavicle 6.36111e-015 1.59028e-014
rhumerus 74.1343 4.64856 -63.2285
rradius 14.0443
rwrist 34.5604
rhand -17.1009 10.98
rfingers 7.12502
rthumb 9.13798 -18.802
lclavicle 6.36111e-015 1.59028e-014
lhumerus 76.6859 -12.1377 78.6022
lradius 5.93563
lwrist -52.9264
lhand -26.8589 -6.99511
lfingers 7.12502
lthumb -0.283847 22.9844
rfemur -86.2434 -60.3454 10.2623
rtibia 142.608
rfoot -40.519 43.5882
rtoes -33.087
lfemur -84.8377 38.0502 -19.4731
ltibia 144.992
lfoot -33.722 -22.9589
ltoes -33.5075
108
root 0.246944 9.83449 3.52036 -178.589 -0.0666584 -180.892
lowerback 24.7717 1.59663 6.75552
upperback 13.223 0.0660142 1.29742
thorax 1.07498 -1.05427 -2.46829
lowerneck -22.2957 -0.943339 0.338769
upperneck -0.679393 -2.09058 -2.86289
head 3.20117 -1.58975 -1.15558
rclavicle -1.11319e-014 -1.90833e-014
rhumerus 74.0769 4.59809 -63.6363
rradius 14.0006
rwrist 35.775
rhand -17.3524 11.0097
rfingers 7.12502
rthumb 8.89526 -18.7828
lclavicle -1.11319e-014 -1.90833e-014
lhumerus 76.5607 -12.1487 78.6019
lradius 6.1608
lwrist -52.9733
lhand -26.7663 -6.85623
lfingers 7.12502
lthumb -0.194363 23.1234
rfemur -85.9039 -55.4466 11.1099
rtibia 141.254
rfoot -38.7255 41.0401
rtoes -33.1351
lfemur -84.3097 33.2397 -19.6188
ltibia 143.614
lfoot -32.6479 -20.8966
ltoes -34.017
